# xmcd CD database file
# Copyright (C) 1996 Ti Kan
#
# Track frame offsets:
# 	150
# 	13772
# 	27277
# 	42380
# 	58317
# 	68525
# 	82927
# 	93600
# 	108627
# 	123757
# 	133802
# 	154547
# 	170070
# 	188455
# 	203952
#
# Disc length: 2963 seconds
#
# Revision: 1
# Processed by: cddbd v1.4b41PL1 Copyright (c) Steve Scherf et al.
# Submitted via: DiscPlay 3.4.1
#
DISCID=c90b910f
DTITLE=Tony Mc Phee - The Blues and The Beast
DYEAR=1900
DGENRE=
TTITLE0=Someday Baby
TTITLE1=Can't Be Satisfied
TTITLE2=Love In Vain
TTITLE3=Oh Death
TTITLE4=Down In The Bottom
TTITLE5=Crawling King Snake
TTITLE6=32-20
TTITLE7=Diving Duck
TTITLE8=Catfish
TTITLE9=Dimples
TTITLE10=Death Letter
TTITLE11=Come On In My Kitchen
TTITLE12=No Place To Go
TTITLE13=Who knows??
TTITLE14=Write Me A Few Short Lines
EXTD=
EXTT0=
EXTT1=
EXTT2=
EXTT3=
EXTT4=
EXTT5=
EXTT6=
EXTT7=
EXTT8=
EXTT9=
EXTT10=
EXTT11=
EXTT12=
EXTT13=
EXTT14=
PLAYORDER=
